<?xml version="1.0" encoding="UTF-8" standalone="no"?>
<!-- Created with Inkscape (http://www.inkscape.org/) -->

<svg width="242" height="119">
  <g id="layer1" transform="translate(0,-933.36218)">
    <rect
      style="fill:#001c00;fill-opacity:1;fill-rule:evenodd;stroke:none;stroke-width:0.98225778;stroke-miterlimit:4;stroke-dasharray:none;stroke-opacity:1"
      id="rect6573"
      width="240.00301"
      height="117.54478"
      x="1.0141931"
      y="934.64191"
      ry="58.772392" />
    <g
      id="g3433"
      transform="translate(-106.57109,-18.182746)" />
    <g
      id="g6575"
      transform="matrix(0.44996866,0,0,0.4495944,4.1082392,845.07926)"
      style="fill:#ffffff;fill-opacity:1;stroke:#dddddd;stroke-width:2;stroke-miterlimit:4;stroke-dasharray:none;stroke-opacity:0.81645574">
      <path
        class="sideField" camera="side_right"
        d="m 435.93892,439.06442 -38.53711,-38.53711 -275.17875,0 -38.537115,38.53711 c 16.556165,8.52953 35.309645,13.42473 55.284985,13.42473 l 241.683,0 c 19.97535,0 38.72882,-4.8952 55.28499,-13.42473 z"
        style="fill:#ffffff;fill-opacity:1;fill-rule:evenodd;stroke:#dddddd;stroke-width:2;stroke-linecap:butt;stroke-linejoin:miter;stroke-miterlimit:4;stroke-dasharray:none;stroke-opacity:0.81645574"
        inkscape:connector-curvature="0" />
      <path
        class="sideField" camera="side_left"
        d="M 435.93892,220.79734 C 419.38275,212.2678 400.62928,207.3726 380.65393,207.3726 l -241.683,0 c -19.97534,0 -38.72882,4.8952 -55.284985,13.42474 l 38.537115,38.5371 275.17875,0 38.53711,-38.5371 z"
        style="fill:#ffffff;fill-opacity:1;fill-rule:evenodd;stroke:#dddddd;stroke-width:2;stroke-linecap:butt;stroke-linejoin:miter;stroke-miterlimit:4;stroke-dasharray:none;stroke-opacity:0.81645574"
        inkscape:connector-curvature="0" />
      <path
        class="sideField" camera="front"
        d="m 439.93892,222.79734 -38.53711,38.5371 0,137.19287 38.53711,38.53711 c 38.79952,-19.98907 65.27329,-60.32111 65.27329,-107.13354 0,-46.81244 -26.47377,-87.14448 -65.27329,-107.13354 z"
        style="fill:#ffffff;fill-opacity:1;fill-rule:evenodd;stroke:#dddddd;stroke-width:2;stroke-linecap:butt;stroke-linejoin:miter;stroke-miterlimit:4;stroke-dasharray:none;stroke-opacity:0.81645574"
        inkscape:connector-curvature="0" />
      <path
        class="sideField" camera="back"
        d="m 79.685945,437.06442 38.537115,-38.53711 0,-137.19287 -38.537115,-38.5371 c -38.79953,19.98906 -65.27329,60.3211 -65.27329,107.13354 0,46.81243 26.47376,87.14447 65.27329,107.13354 z"
        style="fill:#ffffff;fill-opacity:1;fill-rule:evenodd;stroke:#dddddd;stroke-width:2;stroke-linecap:butt;stroke-linejoin:miter;stroke-miterlimit:4;stroke-dasharray:none;stroke-opacity:0.81645574"
        inkscape:connector-curvature="0" />
    </g>
    <rect
      style="fill:#087108;fill-opacity:1;fill-rule:evenodd;stroke:#ffffff;stroke-width:0.65819055;stroke-linecap:butt;stroke-linejoin:miter;stroke-miterlimit:4;stroke-dasharray:none;stroke-opacity:1"
      class="cameraField active"
      width="111.15527"
      height="55.372662"
      x="65.438057"
      y="965.72797"
      ry="0" />
    <ellipse
      cy="993.41431"
      cx="121.01568"
      style="fill:#087108;fill-opacity:1;stroke:#ffffff;stroke-width:0.63355953;stroke-miterlimit:4;stroke-dasharray:none;stroke-opacity:1"
      id="path3762"
      rx="7.0047836"
      ry="6.9989572" />
    <path
      style="fill:#087108;fill-opacity:1;stroke:#ffffff;stroke-width:0.48791;stroke-linecap:butt;stroke-linejoin:miter;stroke-miterlimit:4;stroke-dasharray:none;stroke-opacity:1"
      d="m 121.01569,1021.1007 0,-55.3727"
      id="path3760"
      inkscape:connector-curvature="0" />
    <ellipse
      cy="993.41431"
      cx="82.244278"
      style="fill:#087108;fill-opacity:1;stroke:#ffffff;stroke-width:0.37475386;stroke-miterlimit:4;stroke-dasharray:none;stroke-opacity:1"
      id="path3784"
      rx="4.693675"
      ry="4.6897712" />
    <rect
      style="fill:#087108;fill-opacity:1;stroke:#ffffff;stroke-width:0.45384529;stroke-miterlimit:4;stroke-dasharray:none;stroke-opacity:1"
      id="rect3764"
      width="16.526579"
      height="27.170361"
      x="65.490669"
      y="979.8291" />
    <ellipse
      cy="993.41431"
      cx="158.70123"
      style="fill:#087108;fill-opacity:1;stroke:#ffffff;stroke-width:0.37475386;stroke-miterlimit:4;stroke-dasharray:none;stroke-opacity:1"
      id="path3784-7"
      rx="4.693675"
      ry="4.6897712" />
    <rect
      style="fill:#087108;fill-opacity:1;stroke:#ffffff;stroke-width:0.45384529;stroke-miterlimit:4;stroke-dasharray:none;stroke-opacity:1"
      id="rect3764-1"
      width="16.526579"
      height="27.170361"
      x="160.09145"
      y="979.8291" />
  </g>
</svg>
